<svg width="14" height="13" viewBox="0 0 14 13" fill="none" xmlns="http://www.w3.org/2000/svg">
<path id="Vector" d="M13.0166 9.87093L12.9912 0.0986861L3.21896 0.0733303C3.11715 0.0595455 3.01356 0.0677967 2.91522 0.0975253C2.81687 0.127254 2.72606 0.177767 2.64893 0.245642C2.57181 0.313518 2.51016 0.397172 2.46818 0.490942C2.42619 0.584713 2.40484 0.686409 2.40558 0.789148C2.40631 0.891886 2.42911 0.993267 2.47243 1.08643C2.51575 1.17959 2.57858 1.26235 2.65667 1.32912C2.73476 1.39589 2.82628 1.4451 2.92504 1.47342C3.02381 1.50174 3.1275 1.50851 3.2291 1.49327L10.5519 1.5237L0.850699 11.2249C0.716202 11.3594 0.640643 11.5419 0.640643 11.7321C0.640643 11.9223 0.716202 12.1047 0.850699 12.2392C0.985196 12.3737 1.16761 12.4492 1.35782 12.4492C1.54803 12.4492 1.73045 12.3737 1.86494 12.2392L11.5662 2.53794L11.5966 9.86079C11.5973 10.0511 11.6735 10.2334 11.8086 10.3674C11.9436 10.5015 12.1264 10.5765 12.3167 10.5758C12.507 10.5752 12.6893 10.4989 12.8234 10.3639C12.9575 10.2288 13.0324 10.046 13.0318 9.85572L13.0166 9.87093Z" fill="url(#paint0_linear_122_16)"/>
<defs>
<linearGradient id="paint0_linear_122_16" x1="12.5169" y1="-10.859" x2="24.0137" y2="1.01806" gradientUnits="userSpaceOnUse">
<stop stop-color="#6945F2" stop-opacity="0.6"/>
<stop offset="1" stop-color="#FF364D" stop-opacity="0.47"/>
</linearGradient>
</defs>
</svg>
