<svg width="14" height="14" viewBox="0 0 14 14" fill="none" xmlns="http://www.w3.org/2000/svg">
<path id="Vector" d="M7 1C5.81331 1 4.65328 1.35189 3.66658 2.01118C2.67989 2.67047 1.91085 3.60754 1.45673 4.7039C1.0026 5.80026 0.88378 7.00665 1.11529 8.17054C1.3468 9.33443 1.91825 10.4035 2.75736 11.2426C3.59648 12.0818 4.66557 12.6532 5.82946 12.8847C6.99335 13.1162 8.19975 12.9974 9.2961 12.5433C10.3925 12.0891 11.3295 11.3201 11.9888 10.3334C12.6481 9.34672 13 8.18669 13 7C12.9983 5.40924 12.3656 3.88413 11.2407 2.75929C10.1159 1.63445 8.59076 1.00175 7 1ZM7 12.52C5.90825 12.52 4.84101 12.1963 3.93325 11.5897C3.0255 10.9832 2.31798 10.1211 1.90019 9.11241C1.48239 8.10376 1.37308 6.99388 1.58607 5.9231C1.79906 4.85233 2.32479 3.86876 3.09677 3.09677C3.86876 2.32478 4.85233 1.79906 5.9231 1.58607C6.99388 1.37307 8.10377 1.48239 9.11241 1.90018C10.1211 2.31798 10.9832 3.02549 11.5897 3.93325C12.1963 4.84101 12.52 5.90825 12.52 7C12.5184 8.46351 11.9363 9.86662 10.9015 10.9015C9.86662 11.9363 8.46351 12.5184 7 12.52ZM9.112 8.5846C8.77946 9.02772 8.31594 9.355 7.78708 9.52008C7.25822 9.68516 6.69082 9.67968 6.16525 9.5044C5.63968 9.32913 5.18258 8.99295 4.85866 8.54348C4.53475 8.09401 4.36045 7.55402 4.36045 7C4.36045 6.44597 4.53475 5.90599 4.85866 5.45652C5.18258 5.00704 5.63968 4.67087 6.16525 4.49559C6.69082 4.32032 7.25822 4.31484 7.78708 4.47992C8.31594 4.645 8.77946 4.97227 9.112 5.4154C9.13095 5.44061 9.14475 5.46931 9.15261 5.49986C9.16047 5.5304 9.16223 5.5622 9.1578 5.59343C9.15337 5.62466 9.14283 5.65471 9.12679 5.68186C9.11075 5.70902 9.08951 5.73275 9.0643 5.7517C9.03909 5.77065 9.01039 5.78445 8.97984 5.7923C8.9493 5.80016 8.9175 5.80193 8.88627 5.7975C8.85504 5.79307 8.82499 5.78253 8.79784 5.76649C8.77068 5.75045 8.74695 5.72921 8.728 5.704C8.45599 5.34132 8.07677 5.07342 7.64404 4.93825C7.21132 4.80308 6.74703 4.80748 6.31695 4.95084C5.88687 5.0942 5.51279 5.36925 5.24772 5.73702C4.98264 6.1048 4.84 6.54665 4.84 7C4.84 7.45334 4.98264 7.8952 5.24772 8.26297C5.51279 8.63075 5.88687 8.90579 6.31695 9.04915C6.74703 9.19252 7.21132 9.19692 7.64404 9.06175C8.07677 8.92657 8.45599 8.65868 8.728 8.296C8.76627 8.24508 8.8232 8.21144 8.88627 8.2025C8.94934 8.19355 9.01338 8.21003 9.0643 8.2483C9.11522 8.28657 9.14886 8.3435 9.1578 8.40657C9.16675 8.46964 9.15027 8.53368 9.112 8.5846Z" fill="#F3F3F3" stroke="#27117B" stroke-width="0.629143"/>
</svg>
