<svg width="124" height="114" viewBox="0 0 124 114" fill="none" xmlns="http://www.w3.org/2000/svg">
<g filter="url(#filter0_di_1144_11638)">
<ellipse cx="66" cy="69.7416" rx="11.9691" ry="38.6695" transform="rotate(-90 66 69.7416)" stroke="#DA2338" stroke-width="17.2116"/>
<ellipse cx="30.3624" cy="30.742" rx="30.3624" ry="30.742" transform="matrix(4.37114e-08 -1 -1 -4.37114e-08 97.1006 88.114)" fill="#413EEA"/>
<path fill-rule="evenodd" clip-rule="evenodd" d="M95.7856 67.187C91.7786 79.355 80.2018 88.15 66.5451 88.15C49.5668 88.15 35.8031 74.5563 35.8031 57.7876C35.8031 49.7459 38.9685 42.4345 44.1358 37.0023C43.1612 39.9619 42.6344 43.121 42.6344 46.4016C42.6344 63.1704 56.398 76.7641 73.3763 76.7641C82.2125 76.7641 90.1779 73.0822 95.7856 67.187Z" fill="#3A37DC"/>
<path fill-rule="evenodd" clip-rule="evenodd" d="M38.4661 26.8092C39.5731 29.5443 41.3658 31.7959 43.5656 33.446L52.9532 40.7709C58.1762 44.8463 65.8522 41.7393 66.77 35.1783L68.4195 23.3859C68.8521 20.6703 68.5739 17.8057 67.4669 15.0706C64.2253 7.06208 55.1057 3.1979 47.0972 6.43948C39.0887 9.68107 35.2245 18.8007 38.4661 26.8092ZM53.091 27.8933C48.8988 27.8933 45.5003 24.4949 45.5003 20.3027C45.5003 16.1106 48.8988 12.7121 53.091 12.7121C57.2831 12.7121 60.6816 16.1106 60.6816 20.3027C60.6816 24.4949 57.2831 27.8933 53.091 27.8933Z" fill="#FF364D"/>
<path fill-rule="evenodd" clip-rule="evenodd" d="M20.9948 65.1381C20.3623 66.523 19.9648 68.0966 19.9648 69.864C19.9648 74.9826 23.2986 78.4758 26.0195 80.467C28.895 82.5713 32.5834 84.1581 36.4786 85.3637C44.3582 87.8027 54.794 89.1988 65.9999 89.1988C77.2058 89.1988 87.6417 87.8027 95.5213 85.3637C99.4165 84.1581 103.105 82.5713 105.98 80.467C108.701 78.4758 112.035 74.9826 112.035 69.864C112.035 68.2175 111.69 66.7391 111.131 65.4249C106.395 67.1002 100.694 68.5068 94.2968 69.5613C94.5394 69.6631 94.7698 69.7642 94.9881 69.864C93.9784 70.3258 92.7121 70.8125 91.1655 71.2912C85.0495 73.1843 76.1506 74.4675 65.9999 74.4675C55.8493 74.4675 46.9504 73.1843 40.8344 71.2912C39.2878 70.8125 38.0215 70.3258 37.0118 69.864C37.3083 69.7284 37.6269 69.5907 37.9683 69.4516C31.4781 68.349 25.7245 66.8815 20.9948 65.1381ZM34.1832 71.6075C34.1809 71.6073 34.1964 71.5868 34.2366 71.5465C34.2056 71.5875 34.1855 71.6076 34.1832 71.6075ZM97.8166 71.6075C97.8143 71.6076 97.7943 71.5875 97.7633 71.5466C97.8034 71.5868 97.8189 71.6073 97.8166 71.6075Z" fill="#FF364D"/>
<path d="M34.4475 62.8221C30.3531 64.6108 27.9244 66.7131 27.4263 68.8998C26.9282 71.0865 28.3799 73.2736 31.6229 75.2224C34.8659 77.1712 39.7758 78.8069 45.8169 79.9511C51.8579 81.0952 58.7981 81.7039 65.8804 81.7107C72.9626 81.7175 79.9149 81.1221 85.9787 79.9895C92.0425 78.857 96.985 77.2307 100.267 75.2881C103.549 73.3456 105.044 71.1614 104.59 68.9737C104.135 66.7861 101.749 64.6791 97.6903 62.8826" stroke="#FF364D" stroke-width="17.2116"/>
</g>
<defs>
<filter id="filter0_di_1144_11638" x="0.700684" y="0.29248" width="122.596" height="113.024" filterUnits="userSpaceOnUse" color-interpolation-filters="sRGB">
<feFlood flood-opacity="0" result="BackgroundImageFix"/>
<feColorMatrix in="SourceAlpha" type="matrix" values="0 0 0 0 0 0 0 0 0 0 0 0 0 0 0 0 0 0 127 0" result="hardAlpha"/>
<feOffset dx="-4" dy="9"/>
<feGaussianBlur stdDeviation="7"/>
<feComposite in2="hardAlpha" operator="out"/>
<feColorMatrix type="matrix" values="0 0 0 0 0.543215 0 0 0 0 0.474976 0 0 0 0 0.737435 0 0 0 0.25 0"/>
<feBlend mode="normal" in2="BackgroundImageFix" result="effect1_dropShadow_1144_11638"/>
<feBlend mode="normal" in="SourceGraphic" in2="effect1_dropShadow_1144_11638" result="shape"/>
<feColorMatrix in="SourceAlpha" type="matrix" values="0 0 0 0 0 0 0 0 0 0 0 0 0 0 0 0 0 0 127 0" result="hardAlpha"/>
<feOffset dy="1.39574"/>
<feGaussianBlur stdDeviation="0.697872"/>
<feComposite in2="hardAlpha" operator="arithmetic" k2="-1" k3="1"/>
<feColorMatrix type="matrix" values="0 0 0 0 1 0 0 0 0 0.916667 0 0 0 0 0.971667 0 0 0 0.38 0"/>
<feBlend mode="normal" in2="shape" result="effect2_innerShadow_1144_11638"/>
</filter>
</defs>
</svg>
